PathFileType	4	(x/y/z)	S02_SL_Cal_T01
DataRate	CameraRate	NumFrames	NumMarkers	Units	OrigDataRate	OrigDataStartFrame	OrigNumFrames
240	240	4	51	mm	240	1201	2400
Frame#	Time	Sternum			R.Acromium			L.Acromium			Top.Head			R.ASIS			L.ASIS			R.PSIS			L.PSIS			R.Great.Tro			L.Great.Tro			R.Iliac.Crest			L.Iliac.Crest			V.Sacral			R.Thigh.Upper.Post			R.Thigh.Lower.Ant			R.Thigh.Lower.Post			R.Thigh.Upper.Ant			R.Knee.Lat			R.Knee.Med			R.Shank.Upper.Post			R.Shank.Lower.Ant			R.Shank.Lower.Post			R.Shank.Upper.Ant			R.Ankle.Lat			R.Ankle.Med			R.Heel.Upper			R.Heel.Med			R.Heel.Lat			R.Toe.Lat			R.Toe.Med			R.Toe.Tip			L.Thigh.Upper.Post			L.Thigh.Lower.Ant			L.Thigh.Lower.Post			L.Thigh.Upper.Ant			L.Knee.Lat			L.Knee.Med			L.Shank.Upper.Post			L.Shank.Lower.Ant			L.Shank.Lower.Post			L.Shank.Upper.Ant			L.Ankle.Lat			L.Ankle.Med			L.Heel.Upper			L.Heel.Med			L.Heel.Lat			L.Toe.Lat			L.Toe.Med			L.Toe.Tip			Cervical.Spine			Back			
		X1	Y1	Z1	X2	Y2	Z2	X3	Y3	Z3	X4	Y4	Z4	X5	Y5	Z5	X6	Y6	Z6	X7	Y7	Z7	X8	Y8	Z8	X9	Y9	Z9	X10	Y10	Z10	X11	Y11	Z11	X12	Y12	Z12	X13	Y13	Z13	X14	Y14	Z14	X15	Y15	Z15	X16	Y16	Z16	X17	Y17	Z17	X18	Y18	Z18	X19	Y19	Z19	X20	Y20	Z20	X21	Y21	Z21	X22	Y22	Z22	X23	Y23	Z23	X24	Y24	Z24	X25	Y25	Z25	X26	Y26	Z26	X27	Y27	Z27	X28	Y28	Z28	X29	Y29	Z29	X30	Y30	Z30	X31	Y31	Z31	X32	Y32	Z32	X33	Y33	Z33	X34	Y34	Z34	X35	Y35	Z35	X36	Y36	Z36	X37	Y37	Z37	X38	Y38	Z38	X39	Y39	Z39	X40	Y40	Z40	X41	Y41	Z41	X42	Y42	Z42	X43	Y43	Z43	X44	Y44	Z44	X45	Y45	Z45	X46	Y46	Z46	X47	Y47	Z47	X48	Y48	Z48	X49	Y49	Z49	X50	Y50	Z50	X51	Y51	Z51	

1201	5	641.8	1125.6	312.08	509.45	1357.1	442.49	521.26	1349.2	146.1	559.48	1643	291.82	600.74	938.22	418.39	628.07	924.62	205.75	392.41	971.98	337.81	396.47	970.8	262.52	509.99	834.72	504.96	503.02	840.92	107.54	494.7	989.31	463.71	514.36	974.83	130.13	368.67	923.32	294.02	510.65	630.88	502.23	557.71	544.8	473.38	486.26	544.14	488.86	577.21	631.91	483.15	497.07	464.46	477.48	490.31	438.36	335.2	417.58	258.04	475.59	494.48	179.52	469.28	428	185.1	472.38	490.17	249.03	480.91	452.37	89.792	468.02	467.89	96.943	385.23	398.22	72.299	408.55	415.41	40.641	383.11	397.76	41.697	444.8	552.86	41.287	508.25	598.85	35.524	405.43	638.71	64.583	467.34	453.97	624.91	120.62	520	536.52	119.92	442.53	535.26	134.95	524.33	631.24	106.23	492.67	459.9	124.17	486.04	444.03	263.99	409.68	289.6	115.08	486.7	207.99	115.03	415.07	215.82	125.34	474.04	283.18	106.6	457.74	99.673	120.99	477.67	92.382	201.6	404.27	65.492	159.55	417.73	39.712	191.58	407.47	38.053	130.71	567.96	37.042	79.414	603.19	47.039	184.63	656.16	65.122	130.88	438.03	1406.9	289.4	376.42	1154.9	297.82
1202	5.0042	641.82	1125.6	312.08	509.46	1357.1	442.5	521.28	1349.2	146.11	559.5	1643	291.83	600.76	938.21	418.39	628.09	924.6	205.76	392.43	971.98	337.83	396.48	970.81	262.54	510.01	834.72	504.97	503.02	840.92	107.55	494.72	989.31	463.72	514.37	974.83	130.14	368.69	923.32	294.04	510.66	630.88	502.23	557.72	544.8	473.38	486.26	544.14	488.86	577.22	631.9	483.15	497.07	464.46	477.48	490.31	438.36	335.2	417.58	258.05	475.59	494.48	179.52	469.28	428	185.1	472.39	490.18	249.03	480.91	452.37	89.793	468.02	467.89	96.945	385.23	398.22	72.3	408.55	415.41	40.642	383.11	397.76	41.698	444.8	552.86	41.286	508.25	598.85	35.524	405.43	638.71	64.581	467.34	453.96	624.91	120.63	519.98	536.52	119.93	442.52	535.27	134.96	524.32	631.25	106.24	492.66	459.9	124.18	486.04	444.02	263.99	409.67	289.59	115.1	486.69	207.99	115.03	415.06	215.82	125.35	474.03	283.18	106.61	457.74	99.67	121	477.67	92.381	201.6	404.27	65.492	159.55	417.73	39.712	191.58	407.47	38.054	130.71	567.96	37.041	79.413	603.19	47.038	184.63	656.16	65.116	130.87	438.05	1406.9	289.41	376.43	1154.9	297.82
1203	5.0083	641.84	1125.6	312.09	509.48	1357.1	442.51	521.31	1349.2	146.12	559.52	1643	291.84	600.78	938.21	418.39	628.1	924.59	205.76	392.45	971.99	337.85	396.5	970.81	262.55	510.03	834.72	504.98	503.01	840.92	107.56	494.73	989.31	463.72	514.38	974.84	130.15	368.7	923.33	294.05	510.67	630.88	502.23	557.73	544.79	473.39	486.27	544.14	488.87	577.23	631.9	483.15	497.08	464.46	477.49	490.3	438.36	335.21	417.59	258.05	475.6	494.49	179.52	469.29	428	185.11	472.39	490.18	249.03	480.91	452.37	89.793	468.02	467.89	96.947	385.23	398.22	72.302	408.55	415.41	40.643	383.11	397.76	41.698	444.8	552.86	41.286	508.25	598.86	35.523	405.43	638.71	64.579	467.34	453.95	624.91	120.65	519.97	536.52	119.93	442.51	535.27	134.97	524.3	631.25	106.24	492.65	459.9	124.19	486.04	444.02	264	409.66	289.59	115.11	486.68	207.99	115.03	415.06	215.82	125.36	474.02	283.19	106.61	457.74	99.667	121	477.67	92.38	201.6	404.27	65.492	159.55	417.73	39.712	191.58	407.47	38.056	130.71	567.96	37.041	79.412	603.19	47.038	184.62	656.17	65.11	130.87	438.06	1406.9	289.42	376.45	1154.9	297.82
1204	5.0125	641.86	1125.6	312.09	509.5	1357.1	442.52	521.33	1349.2	146.13	559.55	1643	291.85	600.8	938.2	418.39	628.11	924.57	205.76	392.46	971.99	337.86	396.51	970.81	262.57	510.05	834.71	504.99	503.01	840.92	107.57	494.75	989.32	463.73	514.39	974.84	130.17	368.71	923.33	294.07	510.68	630.88	502.24	557.73	544.79	473.39	486.28	544.14	488.87	577.24	631.9	483.15	497.08	464.45	477.49	490.3	438.36	335.21	417.59	258.05	475.61	494.49	179.53	469.29	428	185.11	472.4	490.19	249.03	480.91	452.37	89.794	468.02	467.89	96.949	385.23	398.22	72.303	408.55	415.41	40.644	383.11	397.76	41.699	444.81	552.86	41.285	508.25	598.86	35.522	405.43	638.71	64.577	467.34	453.94	624.91	120.66	519.96	536.52	119.94	442.5	535.27	134.99	524.29	631.26	106.25	492.64	459.9	124.19	486.04	444.02	264.01	409.65	289.59	115.13	486.68	207.99	115.04	415.05	215.82	125.37	474.01	283.19	106.61	457.74	99.665	121	477.68	92.379	201.61	404.27	65.493	159.55	417.73	39.711	191.58	407.47	38.057	130.71	567.96	37.04	79.412	603.19	47.037	184.62	656.17	65.105	130.87	438.07	1406.9	289.43	376.46	1154.9	297.82
